<svg width="330.15440673828124px" height="125.6px" xmlns="http://www.w3.org/2000/svg" viewBox="84.92279663085938 12.200000000000003 330.15440673828124 125.6" style="background: rgba(0, 0, 0, 0);" preserveAspectRatio="xMidYMid"><defs><filter id="editing-hole" x="-100%" y="-100%" width="300%" height="300%"><feFlood flood-color="#000" result="black"></feFlood><feMorphology operator="dilate" radius="2" in="SourceGraphic" result="erode"></feMorphology><feGaussianBlur in="erode" stdDeviation="4" result="blur"></feGaussianBlur><feOffset in="blur" dx="2" dy="2" result="offset"></feOffset><feComposite operator="atop" in="offset" in2="black" result="merge"></feComposite><feComposite operator="in" in="merge" in2="SourceGraphic" result="inner-shadow"></feComposite></filter></defs><g filter="url(#editing-hole)"><g transform="translate(136.72484588623047, 98.66947937011719)"><path d="M16.88-20.88L16.88-20.88L16.88-20.88Q15.75-20.19 14.63-19.56L14.63-19.56L14.63-19.56Q13.69-19.06 12.66-18.50L12.66-18.50L12.66-18.50Q11.63-17.94 10.94-17.63L10.94-17.63L10.94-17.63Q10.81-11.13 10.66-7.63L10.66-7.63L10.66-7.63Q10.50-4.13 10.44-2.50L10.44-2.50L10.44-2.50Q10.31-0.56 10.19-0.31L10.19-0.31L10.19-0.31Q10.06-0.31 9.44-0.84L9.44-0.84L9.44-0.84Q8.81-1.38 8.09-2.13L8.09-2.13L8.09-2.13Q7.38-2.88 6.78-3.63L6.78-3.63L6.78-3.63Q6.19-4.38 6.06-4.75L6.06-4.75L6.06-4.75Q6-5.56 5.75-9.44L5.75-9.44L5.75-9.44Q5.63-11.13 5.50-13.63L5.50-13.63L5.50-13.63Q5.38-16.13 5.19-19.69L5.19-19.69L5.19-19.69Q5-23.25 4.78-28.06L4.78-28.06L4.78-28.06Q4.56-32.88 4.31-39.13L4.31-39.13L4.31-39.13Q3.19-39.19 2.47-39.19L2.47-39.19L2.47-39.19Q1.75-39.19 1.38-39.16L1.38-39.16L1.38-39.16Q1-39.13 0.81-39.16L0.81-39.16L0.81-39.16Q0.63-39.19 0.50-39.44L0.50-39.44L0.50-39.44Q0.25-39.94 0.13-41.16L0.13-41.16L0.13-41.16Q0-42.38 0-43.50L0-43.50L0-43.50Q0-44.75 0.34-46L0.34-46L0.34-46Q0.69-47.25 1.19-47.56L1.19-47.56L1.19-47.56Q1.38-47.69 2.16-47.63L2.16-47.63L2.16-47.63Q2.94-47.56 4-47.38L4-47.38L4-47.38Q5.06-47.19 6.31-46.94L6.31-46.94L6.31-46.94Q7.56-46.69 8.69-46.44L8.69-46.44L8.69-46.44Q9.81-46.19 10.66-45.97L10.66-45.97L10.66-45.97Q11.50-45.75 11.88-45.69L11.88-45.69L11.88-45.69Q12.50-45.56 14.19-44.97L14.19-44.97L14.19-44.97Q15.88-44.38 17.78-43.53L17.78-43.53L17.78-43.53Q19.69-42.69 21.41-41.72L21.41-41.72L21.41-41.72Q23.13-40.75 23.94-39.81L23.94-39.81L23.94-39.81Q24.25-39.44 24.53-37.69L24.53-37.69L24.53-37.69Q24.81-35.94 24.97-33.91L24.97-33.91L24.97-33.91Q25.13-31.88 25.09-30.03L25.09-30.03L25.09-30.03Q25.06-28.19 24.75-27.63L24.75-27.63L24.75-27.63Q24.50-27.25 23.81-26.44L23.81-26.44L23.81-26.44Q23.13-25.63 22.09-24.66L22.09-24.66L22.09-24.66Q21.06-23.69 19.75-22.69L19.75-22.69L19.75-22.69Q18.44-21.69 16.88-20.88ZM11.75-37.81L11.13-22.19L11.13-22.19Q11.69-22.50 12.53-23.41L12.53-23.41L12.53-23.41Q13.38-24.31 14.31-25.47L14.31-25.47L14.31-25.47Q15.25-26.63 16.19-27.91L16.19-27.91L16.19-27.91Q17.13-29.19 17.91-30.31L17.91-30.31L17.91-30.31Q18.69-31.44 19.16-32.28L19.16-32.28L19.16-32.28Q19.63-33.13 19.63-33.38L19.63-33.38L19.63-33.38Q19.63-33.75 19.06-34.34L19.06-34.34L19.06-34.34Q18.50-34.94 17.47-35.56L17.47-35.56L17.47-35.56Q16.44-36.19 14.97-36.78L14.97-36.78L14.97-36.78Q13.50-37.38 11.75-37.81L11.75-37.81ZM40.81-34.06L40.81-34.06L40.81-34.06Q41.31-33.75 41.78-32.84L41.78-32.84L41.78-32.84Q42.25-31.94 42.66-30.78L42.66-30.78L42.66-30.78Q43.06-29.63 43.34-28.31L43.34-28.31L43.34-28.31Q43.63-27 43.84-25.88L43.84-25.88L43.84-25.88Q44.06-24.75 44.13-23.97L44.13-23.97L44.13-23.97Q44.19-23.19 44.13-23L44.13-23L44.13-23Q44-22.75 43.38-22.50L43.38-22.50L43.38-22.50Q42.81-22.25 41.69-21.94L41.69-21.94L41.69-21.94Q40.56-21.63 38.56-21.25L38.56-21.25L38.56-21.25Q38.44-24.69 38.06-26.47L38.06-26.47L38.06-26.47Q37.69-28.25 37.25-29L37.25-29L37.25-29Q36.75-29.88 36.19-29.88L36.19-29.88L36.19-29.88Q35.63-29.63 35.19-29.28L35.19-29.28L35.19-29.28Q34.75-28.94 34.44-28.56L34.44-28.56L34.44-28.56Q34.06-28.13 33.75-27.63L33.75-27.63L33.75-27.63Q33.63-27.44 33.50-26.75L33.50-26.75L33.50-26.75Q33.38-26.06 33.25-24.69L33.25-24.69L33.25-24.69Q33.25-24.25 33.22-22.88L33.22-22.88L33.22-22.88Q33.19-21.50 33.16-19.69L33.16-19.69L33.16-19.69Q33.13-17.88 33.09-15.88L33.09-15.88L33.09-15.88Q33.06-13.88 33.03-12.16L33.03-12.16L33.03-12.16Q33-10.44 32.97-9.25L32.97-9.25L32.97-9.25Q32.94-8.06 32.88-7.88L32.88-7.88L32.88-7.88Q32.75-7.56 32.25-7L32.25-7L32.25-7Q31.75-6.44 31.13-5.97L31.13-5.97L31.13-5.97Q30.50-5.50 29.94-5.22L29.94-5.22L29.94-5.22Q29.38-4.94 29.19-5.25L29.19-5.25L29.19-5.25Q29-5.44 28.81-6.88L28.81-6.88L28.81-6.88Q28.63-8.31 28.41-10.41L28.41-10.41L28.41-10.41Q28.19-12.50 27.94-15L27.94-15L27.94-15Q27.69-17.50 27.50-19.81L27.50-19.81L27.50-19.81Q27.31-22.13 27.19-23.97L27.19-23.97L27.19-23.97Q27.06-25.81 27-26.63L27-26.63L27-26.63Q26.94-27.81 26.88-29.25L26.88-29.25L26.88-29.25Q26.81-30.69 26.78-31.97L26.78-31.97L26.78-31.97Q26.75-33.25 26.78-34.22L26.78-34.22L26.78-34.22Q26.81-35.19 27-35.38L27-35.38L27-35.38Q27.13-35.56 27.84-35.47L27.84-35.47L27.84-35.47Q28.56-35.38 29.41-35.09L29.41-35.09L29.41-35.09Q30.25-34.81 31-34.38L31-34.38L31-34.38Q31.75-33.94 32-33.56L32-33.56L32-33.56Q32.19-33.25 32.38-32.63L32.38-32.63L32.38-32.63Q33.56-33.25 34.66-33.78L34.66-33.78L34.66-33.78Q35.75-34.31 36.78-34.56L36.78-34.56L36.78-34.56Q37.81-34.81 38.81-34.72L38.81-34.72L38.81-34.72Q39.81-34.63 40.81-34.06ZM52.69-26.88L52.69-26.88L52.69-26.88Q52.81-26.56 52.84-24.91L52.84-24.91L52.84-24.91Q52.88-23.25 52.84-20.91L52.84-20.91L52.84-20.91Q52.81-18.56 52.69-15.91L52.69-15.91L52.69-15.91Q52.56-13.25 52.41-10.91L52.41-10.91L52.41-10.91Q52.25-8.56 52.06-6.91L52.06-6.91L52.06-6.91Q51.88-5.25 51.69-4.94L51.69-4.94L51.69-4.94Q51.13-4.06 50-3.84L50-3.84L50-3.84Q48.88-3.63 48.38-3.75L48.38-3.75L48.38-3.75Q48.13-3.75 47.84-5.19L47.84-5.19L47.84-5.19Q47.56-6.63 47.31-8.81L47.31-8.81L47.31-8.81Q47.06-11 46.88-13.56L46.88-13.56L46.88-13.56Q46.69-16.13 46.56-18.47L46.56-18.47L46.56-18.47Q46.44-20.81 46.44-22.56L46.44-22.56L46.44-22.56Q46.44-24.31 46.56-24.81L46.56-24.81L46.56-24.81Q46.75-25.63 47.66-26.25L47.66-26.25L47.66-26.25Q48.56-26.88 49.59-27.19L49.59-27.19L49.59-27.19Q50.63-27.50 51.53-27.47L51.53-27.47L51.53-27.47Q52.44-27.44 52.69-26.88ZM53-37L53-37L53-37Q53.25-36.50 53.22-35.63L53.22-35.63L53.22-35.63Q53.19-34.75 53-33.81L53-33.81L53-33.81Q52.81-32.88 52.50-32L52.50-32L52.50-32Q52.19-31.13 51.88-30.63L51.88-30.63L51.88-30.63Q51.25-29.75 50.03-29.53L50.03-29.53L50.03-29.53Q48.81-29.31 48.25-29.44L48.25-29.44L48.25-29.44Q47.81-29.50 47.38-30.03L47.38-30.03L47.38-30.03Q46.94-30.56 46.63-31.34L46.63-31.34L46.63-31.34Q46.31-32.13 46.19-33.06L46.19-33.06L46.19-33.06Q46.06-34 46.25-34.81L46.25-34.81L46.25-34.81Q46.44-35.63 47.44-36.28L47.44-36.28L47.44-36.28Q48.44-36.94 49.56-37.28L49.56-37.28L49.56-37.28Q50.69-37.63 51.69-37.59L51.69-37.59L51.69-37.59Q52.69-37.56 53-37ZM61.44-7.81L61.44-7.81L61.44-7.81Q60.56-11 59.50-15.31L59.50-15.31L59.50-15.31Q58.63-19 57.41-24.28L57.41-24.28L57.41-24.28Q56.19-29.56 54.81-36.38L54.81-36.38L54.81-36.38Q54.81-36.81 55.34-37.47L55.34-37.47L55.34-37.47Q55.88-38.13 56.63-38.72L56.63-38.72L56.63-38.72Q57.38-39.31 58.19-39.72L58.19-39.72L58.19-39.72Q59-40.13 59.63-40.13L59.63-40.13L59.63-40.13Q59.88-39.75 60.50-36.81L60.50-36.81L60.50-36.81Q60.75-35.56 61.09-33.66L61.09-33.66L61.09-33.66Q61.44-31.75 61.88-28.94L61.88-28.94L61.88-28.94Q62.31-26.13 62.84-22.34L62.84-22.34L62.84-22.34Q63.38-18.56 64.06-13.63L64.06-13.63L64.06-13.63Q64.56-17 65.03-20L65.03-20L65.03-20Q65.50-23 65.88-25.31L65.88-25.31L65.88-25.31Q66.31-28 66.69-30.31L66.69-30.31L66.69-30.31Q66.88-31.75 67.13-33.34L67.13-33.34L67.13-33.34Q67.38-34.94 67.66-36.25L67.66-36.25L67.66-36.25Q67.94-37.56 68.28-38.47L68.28-38.47L68.28-38.47Q68.63-39.38 69-39.38L69-39.38L69-39.38Q69.38-39.38 70.13-39.22L70.13-39.22L70.13-39.22Q70.88-39.06 71.66-38.81L71.66-38.81L71.66-38.81Q72.44-38.56 73.06-38.22L73.06-38.22L73.06-38.22Q73.69-37.88 73.69-37.50L73.69-37.50L73.69-37.50Q73.69-37.31 73.31-35.66L73.31-35.66L73.31-35.66Q72.94-34 72.31-31.44L72.31-31.44L72.31-31.44Q71.69-28.88 70.88-25.66L70.88-25.66L70.88-25.66Q70.06-22.44 69.22-19.13L69.22-19.13L69.22-19.13Q68.38-15.81 67.50-12.63L67.50-12.63L67.50-12.63Q66.63-9.44 65.91-6.97L65.91-6.97L65.91-6.97Q65.19-4.50 64.69-2.97L64.69-2.97L64.69-2.97Q64.19-1.44 64-1.44L64-1.44L64-1.44Q63.81-1.44 62.97-3.16L62.97-3.16L62.97-3.16Q62.13-4.88 61.44-7.81ZM90.81-32.88L90.81-32.88L90.81-32.88Q91.19-32.44 91.50-31.97L91.50-31.97L91.50-31.97Q91.81-31.50 92.06-30.72L92.06-30.72L92.06-30.72Q92.31-29.94 92.47-28.69L92.47-28.69L92.47-28.69Q92.63-27.44 92.63-25.44L92.63-25.44L92.63-25.44Q92.63-22.25 92.47-19.03L92.47-19.03L92.47-19.03Q92.31-15.81 92.19-13.38L92.19-13.38L92.19-13.38Q92.13-11.19 92.06-9.31L92.06-9.31L92.06-9.31Q92-7.44 91.94-6.03L91.94-6.03L91.94-6.03Q91.88-4.63 91.78-3.81L91.78-3.81L91.78-3.81Q91.69-3 91.63-2.94L91.63-2.94L91.63-2.94Q91.38-2.75 90.84-3.09L90.84-3.09L90.84-3.09Q90.31-3.44 89.72-4L89.72-4L89.72-4Q89.13-4.56 88.63-5.19L88.63-5.19L88.63-5.19Q88.13-5.81 88-6.19L88-6.19L88-6.19Q88-6.50 87.81-8L87.81-8L87.81-8Q86.31-7.13 84.50-6.78L84.50-6.78L84.50-6.78Q82.69-6.44 80.91-6.53L80.91-6.53L80.91-6.53Q79.13-6.63 77.63-7.19L77.63-7.19L77.63-7.19Q76.13-7.75 75.38-8.69L75.38-8.69L75.38-8.69Q75.06-9.06 74.84-9.81L74.84-9.81L74.84-9.81Q74.63-10.56 74.47-11.53L74.47-11.53L74.47-11.53Q74.31-12.50 74.19-13.59L74.19-13.59L74.19-13.59Q74.06-14.69 74-15.63L74-15.63L74-15.63Q73.88-18.06 74.63-19.84L74.63-19.84L74.63-19.84Q75.38-21.63 77.38-22.50L77.38-22.50L77.38-22.50Q78.25-22.88 79.72-22.91L79.72-22.91L79.72-22.91Q81.19-22.94 82.66-22.78L82.66-22.78L82.66-22.78Q84.13-22.63 85.31-22.41L85.31-22.41L85.31-22.41Q86.50-22.19 86.81-22.06L86.81-22.06L86.81-22.06Q86.56-25.25 86.44-27.59L86.44-27.59L86.44-27.59Q86.31-29.94 85.94-30.63L85.94-30.63L85.94-30.63Q85.63-31.06 85.19-31.50L85.19-31.50L85.19-31.50Q84.81-31.81 84.19-32.19L84.19-32.19L84.19-32.19Q83.56-32.56 82.69-32.75L82.69-32.75L82.69-32.75Q82-32.88 81.44-32.19L81.44-32.19L81.44-32.19Q80.94-31.56 80.53-29.97L80.53-29.97L80.53-29.97Q80.13-28.38 80.06-25.13L80.06-25.13L80.06-25.13Q77.88-25.06 76.72-25.16L76.72-25.16L76.72-25.16Q75.56-25.25 75-25.38L75-25.38L75-25.38Q74.31-25.50 74.19-25.69L74.19-25.69L74.19-25.69Q74.06-25.94 74.31-27.53L74.31-27.53L74.31-27.53Q74.56-29.13 75.03-31L75.03-31L75.03-31Q75.50-32.88 76.16-34.56L76.16-34.56L76.16-34.56Q76.81-36.25 77.56-36.69L77.56-36.69L77.56-36.69Q79.06-37.56 81.16-37.31L81.16-37.31L81.16-37.31Q83.25-37.06 85.25-36.25L85.25-36.25L85.25-36.25Q87.25-35.44 88.81-34.44L88.81-34.44L88.81-34.44Q90.38-33.44 90.81-32.88ZM86.94-14.63L86.94-14.63L86.94-14.63Q86.94-14.94 87-15.47L87-15.47L87-15.47Q87.06-16 87.06-16.56L87.06-16.56L87.06-16.56Q87.06-17.13 87.03-17.63L87.03-17.63L87.03-17.63Q87-18.13 86.88-18.38L86.88-18.38L86.88-18.38Q86.69-18.75 85.78-19L85.78-19L85.78-19Q84.88-19.25 83.75-19.34L83.75-19.34L83.75-19.34Q82.63-19.44 81.63-19.41L81.63-19.41L81.63-19.41Q80.63-19.38 80.25-19.13L80.25-19.13L80.25-19.13Q79.75-18.81 79.53-18.25L79.53-18.25L79.53-18.25Q79.31-17.69 79.25-16.50L79.25-16.50L79.25-16.50Q79.25-15.94 79.31-15.31L79.31-15.31L79.31-15.31Q79.38-14.69 79.47-14.09L79.47-14.09L79.47-14.09Q79.56-13.50 79.72-13.06L79.72-13.06L79.72-13.06Q79.88-12.63 80.06-12.50L80.06-12.50L80.06-12.50Q80.50-12.19 81.59-11.97L81.59-11.97L81.59-11.97Q82.69-11.75 83.81-11.84L83.81-11.84L83.81-11.84Q84.94-11.94 85.88-12.56L85.88-12.56L85.88-12.56Q86.81-13.19 86.94-14.63ZM109.94-32.13L109.94-32.13L109.94-32.13Q110-31.94 109.94-31.09L109.94-31.09L109.94-31.09Q109.88-30.25 109.72-29.22L109.72-29.22L109.72-29.22Q109.56-28.19 109.38-27.34L109.38-27.34L109.38-27.34Q109.19-26.50 109.06-26.31L109.06-26.31L109.06-26.31Q108.44-26.25 107.81-26.28L107.81-26.28L107.81-26.28Q107.19-26.31 106.63-26.31L106.63-26.31L105.31-26.31L105.31-26.31Q105.25-22.19 105.13-18.13L105.13-18.13L105.13-18.13Q105-14.06 104.81-10.84L104.81-10.84L104.81-10.84Q104.63-7.63 104.41-5.63L104.41-5.63L104.41-5.63Q104.19-3.63 104-3.56L104-3.56L104-3.56Q103.56-3.50 103-3.94L103-3.94L103-3.94Q102.44-4.38 101.91-5.03L101.91-5.03L101.91-5.03Q101.38-5.69 100.97-6.41L100.97-6.41L100.97-6.41Q100.56-7.13 100.50-7.69L100.50-7.69L100.50-7.69Q100.19-11.50 99.94-14.97L99.94-14.97L99.94-14.97Q99.69-18.44 99.56-21.13L99.56-21.13L99.56-21.13Q99.31-24.25 99.25-26.94L99.25-26.94L99.25-26.94Q98.56-27 97.88-27.13L97.88-27.13L97.88-27.13Q97.25-27.25 96.59-27.38L96.59-27.38L96.59-27.38Q95.94-27.50 95.25-27.63L95.25-27.63L95.25-27.63Q95.13-27.75 94.94-28.22L94.94-28.22L94.94-28.22Q94.75-28.69 94.59-29.25L94.59-29.25L94.59-29.25Q94.44-29.81 94.31-30.34L94.31-30.34L94.31-30.34Q94.19-30.88 94.19-31.13L94.19-31.13L94.19-31.13Q94.19-31.31 95.59-31.50L95.59-31.50L95.59-31.50Q97-31.69 99.06-31.81L99.06-31.81L99.06-31.81Q98.94-35.13 98.91-37.59L98.91-37.59L98.91-37.59Q98.88-40.06 99.06-40.94L99.06-40.94L99.06-40.94Q99.25-42.13 100.09-43.22L100.09-43.22L100.09-43.22Q100.94-44.31 101.91-45.13L101.91-45.13L101.91-45.13Q102.88-45.94 103.72-46.34L103.72-46.34L103.72-46.34Q104.56-46.75 104.81-46.56L104.81-46.56L104.81-46.56Q105-46.44 105.13-45.28L105.13-45.28L105.13-45.28Q105.25-44.13 105.31-42.19L105.31-42.19L105.31-42.19Q105.38-40.25 105.38-37.66L105.38-37.66L105.38-37.66Q105.38-35.06 105.38-32.19L105.38-32.19L105.38-32.19Q107.25-32.31 108.56-32.28L108.56-32.28L108.56-32.28Q109.88-32.25 109.94-32.13ZM116.81-18.06L116.81-18.06L116.81-18.06Q117.81-18.44 119.09-18.91L119.09-18.91L119.09-18.91Q120.38-19.38 121.56-19.78L121.56-19.78L121.56-19.78Q122.75-20.19 123.69-20.50L123.69-20.50L123.69-20.50Q124.63-20.81 125.06-21L125.06-21L125.06-21Q125-21.69 124.91-22.59L124.91-22.59L124.91-22.59Q124.81-23.50 124.69-24.34L124.69-24.34L124.69-24.34Q124.56-25.19 124.38-25.81L124.38-25.81L124.38-25.81Q124.19-26.44 124-26.56L124-26.56L124-26.56Q123.50-26.75 122.34-26.91L122.34-26.91L122.34-26.91Q121.19-27.06 119.97-26.81L119.97-26.81L119.97-26.81Q118.75-26.56 117.75-25.88L117.75-25.88L117.75-25.88Q116.75-25.19 116.63-23.69L116.63-23.69L116.63-23.69Q116.50-22.69 116.56-21.19L116.56-21.19L116.56-21.19Q116.63-19.69 116.81-18.06ZM130.38-17.06L130.38-17.06L130.38-17.06Q130.31-16.94 128.88-16.56L128.88-16.56L128.88-16.56Q127.44-16.19 125.44-15.78L125.44-15.78L125.44-15.78Q123.44-15.38 121.19-14.97L121.19-14.97L121.19-14.97Q118.94-14.56 117.31-14.31L117.31-14.31L117.31-14.31Q117.63-11.81 118.06-9.84L118.06-9.84L118.06-9.84Q118.50-7.88 118.81-7.38L118.81-7.38L118.81-7.38Q119.13-6.94 119.63-6.56L119.63-6.56L119.63-6.56Q120.06-6.25 120.72-5.97L120.72-5.97L120.72-5.97Q121.38-5.69 122.31-5.56L122.31-5.56L122.31-5.56Q123-5.38 123.63-6.06L123.63-6.06L123.63-6.06Q124.13-6.69 124.53-8.25L124.53-8.25L124.53-8.25Q124.94-9.81 124.94-13.19L124.94-13.19L124.94-13.19Q126.88-13.50 127.97-13.56L127.97-13.56L127.97-13.56Q129.06-13.63 129.56-13.56L129.56-13.56L129.56-13.56Q130.19-13.50 130.31-13.38L130.31-13.38L130.31-13.38Q130.38-13.19 130.31-12.44L130.31-12.44L130.31-12.44Q130.25-11.69 130.03-10.59L130.03-10.59L130.03-10.59Q129.81-9.50 129.53-8.22L129.53-8.22L129.53-8.22Q129.25-6.94 128.88-5.78L128.88-5.78L128.88-5.78Q128.50-4.63 128.06-3.72L128.06-3.72L128.06-3.72Q127.63-2.81 127.13-2.44L127.13-2.44L127.13-2.44Q125.63-1.31 123.38-1.34L123.38-1.34L123.38-1.34Q121.13-1.38 118.94-1.97L118.94-1.97L118.94-1.97Q116.75-2.56 115-3.41L115-3.41L115-3.41Q113.25-4.25 112.81-4.81L112.81-4.81L112.81-4.81Q112.50-5.19 112.25-6.72L112.25-6.72L112.25-6.72Q112-8.25 111.84-10.44L111.84-10.44L111.84-10.44Q111.69-12.63 111.63-15.25L111.63-15.25L111.63-15.25Q111.56-17.88 111.72-20.38L111.72-20.38L111.72-20.38Q111.88-22.88 112.22-25L112.22-25L112.22-25Q112.56-27.13 113.19-28.44L113.19-28.44L113.19-28.44Q114.13-30.31 116.25-31.50L116.25-31.50L116.25-31.50Q118.38-32.69 120.75-33.13L120.75-33.13L120.75-33.13Q123.13-33.56 125.28-33.25L125.28-33.25L125.28-33.25Q127.44-32.94 128.50-31.88L128.50-31.88L128.50-31.88Q129.13-31.25 129.63-29.41L129.63-29.41L129.63-29.41Q130.13-27.56 130.25-24.94L130.25-24.94L130.25-24.94Q130.25-24.69 130.31-23.50L130.31-23.50L130.31-23.50Q130.38-22.31 130.41-20.97L130.41-20.97L130.41-20.97Q130.44-19.63 130.44-18.44L130.44-18.44L130.44-18.44Q130.44-17.25 130.38-17.06ZM160.06-24.50L160.06-24.50L160.06-24.50Q161.50-23.75 162.97-22.88L162.97-22.88L162.97-22.88Q164.44-22 165.69-21.22L165.69-21.22L165.69-21.22Q166.94-20.44 167.78-19.78L167.78-19.78L167.78-19.78Q168.63-19.13 168.88-18.75L168.88-18.75L168.88-18.75Q169.19-18.25 169.19-17.22L169.19-17.22L169.19-17.22Q169.19-16.19 169.03-14.97L169.03-14.97L169.03-14.97Q168.88-13.75 168.56-12.59L168.56-12.59L168.56-12.59Q168.25-11.44 167.88-10.75L167.88-10.75L167.88-10.75Q167.44-9.88 165.91-8.50L165.91-8.50L165.91-8.50Q164.38-7.13 162.50-5.75L162.50-5.75L162.50-5.75Q160.63-4.38 158.84-3.31L158.84-3.31L158.84-3.31Q157.06-2.25 156.13-2L156.13-2L156.13-2Q155.44-1.81 154.09-1.63L154.09-1.63L154.09-1.63Q152.75-1.44 151.31-1.31L151.31-1.31L151.31-1.31Q149.88-1.19 148.72-1.16L148.72-1.16L148.72-1.16Q147.56-1.13 147.31-1.25L147.31-1.25L147.31-1.25Q146.81-1.56 146.47-2.19L146.47-2.19L146.47-2.19Q146.13-2.81 146.13-3.81L146.13-3.81L146.13-3.81Q146.25-6 146.63-6.81L146.63-6.81L146.63-6.81Q146.75-7 146.94-7.03L146.94-7.03L146.94-7.03Q147.13-7.06 147.56-7.06L147.56-7.06L147.56-7.06Q148-7.06 148.69-7.06L148.69-7.06L148.69-7.06Q149.38-7.06 150.50-7.13L150.50-7.13L150.50-7.13Q150.19-10.31 149.94-13.19L149.94-13.19L149.94-13.19Q149.69-16.06 149.50-18.25L149.50-18.25L149.50-18.25Q149.25-20.81 149.13-23.06L149.13-23.06L149.13-23.06Q149-25.25 148.75-27.94L148.75-27.94L148.75-27.94Q148.56-30.25 148.31-33.31L148.31-33.31L148.31-33.31Q148.06-36.38 147.75-39.94L147.75-39.94L147.75-39.94Q147.19-39.94 146.44-39.94L146.44-39.94L146.44-39.94Q145.69-39.94 144.97-39.97L144.97-39.97L144.97-39.97Q144.25-40 143.72-40.09L143.72-40.09L143.72-40.09Q143.19-40.19 143.06-40.38L143.06-40.38L143.06-40.38Q142.81-40.75 142.69-41.78L142.69-41.78L142.69-41.78Q142.56-42.81 142.56-43.81L142.56-43.81L142.56-43.81Q142.56-44.88 142.94-45.91L142.94-45.91L142.94-45.91Q143.31-46.94 143.81-47.25L143.81-47.25L143.81-47.25Q143.94-47.31 144.81-47.28L144.81-47.28L144.81-47.28Q145.69-47.25 146.94-47.09L146.94-47.09L146.94-47.09Q148.19-46.94 149.66-46.72L149.66-46.72L149.66-46.72Q151.13-46.50 152.44-46.28L152.44-46.28L152.44-46.28Q153.75-46.06 154.75-45.88L154.75-45.88L154.75-45.88Q155.75-45.69 156.13-45.63L156.13-45.63L156.13-45.63Q156.75-45.50 158.53-44.97L158.53-44.97L158.53-44.97Q160.31-44.44 162.38-43.75L162.38-43.75L162.38-43.75Q164.44-43.06 166.31-42.22L166.31-42.22L166.31-42.22Q168.19-41.38 168.94-40.56L168.94-40.56L168.94-40.56Q169.25-40.25 169.53-38.81L169.53-38.81L169.53-38.81Q169.81-37.38 169.97-35.63L169.97-35.63L169.97-35.63Q170.13-33.88 170.09-32.34L170.09-32.34L170.09-32.34Q170.06-30.81 169.75-30.31L169.75-30.31L169.75-30.31Q169.50-29.94 168-29L168-29L168-29Q166.50-28.06 164.69-27.06L164.69-27.06L164.69-27.06Q162.63-25.94 160.06-24.50ZM155.44-39L155.31-25.75L155.31-25.75Q156.13-26.13 157.53-27.25L157.53-27.25L157.53-27.25Q158.94-28.38 160.34-29.78L160.34-29.78L160.34-29.78Q161.75-31.19 162.78-32.66L162.78-32.66L162.78-32.66Q163.81-34.13 163.81-35.19L163.81-35.19L163.81-35.19Q163.81-35.50 163.16-36L163.16-36L163.16-36Q162.50-36.50 161.38-37L161.38-37L161.38-37Q160.25-37.50 158.72-38.03L158.72-38.03L158.72-38.03Q157.19-38.56 155.44-39L155.44-39ZM155.31-21.38L155.25-7.81L155.25-7.81Q157-8.19 158.56-9L158.56-9L158.56-9Q160.13-9.81 161.31-10.78L161.31-10.78L161.31-10.78Q162.50-11.75 163.19-12.75L163.19-12.75L163.19-12.75Q163.88-13.75 163.88-14.56L163.88-14.56L163.88-14.56Q163.88-15.38 162.84-16.38L162.84-16.38L162.84-16.38Q161.81-17.38 160.41-18.38L160.41-18.38L160.41-18.38Q159-19.38 157.56-20.19L157.56-20.19L157.56-20.19Q156.13-21 155.31-21.38L155.31-21.38ZM186.38-34.19L186.38-34.19L186.38-34.19Q186.81-33.81 187.22-32.75L187.22-32.75L187.22-32.75Q187.63-31.69 187.94-30.19L187.94-30.19L187.94-30.19Q188.25-28.69 188.50-26.94L188.50-26.94L188.50-26.94Q188.75-25.19 188.94-23.50L188.94-23.50L188.94-23.50Q189.13-21.81 189.22-20.34L189.22-20.34L189.22-20.34Q189.31-18.88 189.38-17.94L189.38-17.94L189.38-17.94Q189.44-16.81 189.47-15.59L189.47-15.59L189.47-15.59Q189.50-14.38 189.47-13.28L189.47-13.28L189.47-13.28Q189.44-12.19 189.34-11.31L189.34-11.31L189.34-11.31Q189.25-10.44 189.06-10L189.06-10L189.06-10Q188.69-9.06 187.78-8.72L187.78-8.72L187.78-8.72Q186.88-8.38 185.75-8.25L185.75-8.25L185.75-8.25Q185.19-8.19 183.84-8.22L183.84-8.22L183.84-8.22Q182.50-8.25 180.97-8.34L180.97-8.34L180.97-8.34Q179.44-8.44 178.06-8.56L178.06-8.56L178.06-8.56Q176.69-8.69 176-8.81L176-8.81L176-8.81Q174.63-9.13 174.03-9.63L174.03-9.63L174.03-9.63Q173.44-10.13 172.88-11.06L172.88-11.06L172.88-11.06Q172.69-11.44 172.56-12.97L172.56-12.97L172.56-12.97Q172.44-14.50 172.41-16.66L172.41-16.66L172.41-16.66Q172.38-18.81 172.44-21.31L172.44-21.31L172.44-21.31Q172.50-23.81 172.66-26.06L172.66-26.06L172.66-26.06Q172.81-28.31 173.03-30L173.03-30L173.03-30Q173.25-31.69 173.63-32.25L173.63-32.25L173.63-32.25Q174.25-33.13 175.78-33.88L175.78-33.88L175.78-33.88Q177.31-34.63 178.56-35.06L178.56-35.06L178.56-35.06Q179.19-35.25 180.22-35.34L180.22-35.34L180.22-35.34Q181.25-35.44 182.41-35.34L182.41-35.34L182.41-35.34Q183.56-35.25 184.63-34.97L184.63-34.97L184.63-34.97Q185.69-34.69 186.38-34.19ZM182.88-14.81L182.88-14.81L182.88-14.81Q183-15.06 183.16-16.34L183.16-16.34L183.16-16.34Q183.31-17.63 183.41-19.44L183.41-19.44L183.41-19.44Q183.50-21.25 183.53-23.31L183.53-23.31L183.53-23.31Q183.56-25.38 183.56-27.13L183.56-27.13L183.56-27.13Q183.56-28.88 183.44-30.09L183.44-30.09L183.44-30.09Q183.31-31.31 183.13-31.50L183.13-31.50L183.13-31.50Q182.81-31.75 182.22-31.72L182.22-31.72L182.22-31.72Q181.63-31.69 181-31.53L181-31.53L181-31.53Q180.38-31.38 179.88-31.16L179.88-31.16L179.88-31.16Q179.38-30.94 179.19-30.75L179.19-30.75L179.19-30.75Q178.38-30.06 178.31-28.50L178.31-28.50L178.31-28.50Q178.31-28.06 178.22-26.03L178.22-26.03L178.22-26.03Q178.13-24 178.13-21.66L178.13-21.66L178.13-21.66Q178.13-19.31 178.22-17.31L178.22-17.31L178.22-17.31Q178.31-15.31 178.63-14.88L178.63-14.88L178.63-14.88Q178.94-14.44 179.53-14.22L179.53-14.22L179.53-14.22Q180.13-14 180.78-14L180.78-14L180.78-14Q181.44-14 182.03-14.22L182.03-14.22L182.03-14.22Q182.63-14.44 182.88-14.81ZM206.13-32.13L206.13-32.13L206.13-32.13Q206.19-31.94 206.13-31.09L206.13-31.09L206.13-31.09Q206.06-30.25 205.91-29.22L205.91-29.22L205.91-29.22Q205.75-28.19 205.56-27.34L205.56-27.34L205.56-27.34Q205.38-26.50 205.25-26.31L205.25-26.31L205.25-26.31Q204.63-26.25 204-26.28L204-26.28L204-26.28Q203.38-26.31 202.81-26.31L202.81-26.31L201.50-26.31L201.50-26.31Q201.44-22.19 201.31-18.13L201.31-18.13L201.31-18.13Q201.19-14.06 201-10.84L201-10.84L201-10.84Q200.81-7.63 200.59-5.63L200.59-5.63L200.59-5.63Q200.38-3.63 200.19-3.56L200.19-3.56L200.19-3.56Q199.75-3.50 199.19-3.94L199.19-3.94L199.19-3.94Q198.63-4.38 198.09-5.03L198.09-5.03L198.09-5.03Q197.56-5.69 197.16-6.41L197.16-6.41L197.16-6.41Q196.75-7.13 196.69-7.69L196.69-7.69L196.69-7.69Q196.38-11.50 196.13-14.97L196.13-14.97L196.13-14.97Q195.88-18.44 195.75-21.13L195.75-21.13L195.75-21.13Q195.50-24.25 195.44-26.94L195.44-26.94L195.44-26.94Q194.75-27 194.06-27.13L194.06-27.13L194.06-27.13Q193.44-27.25 192.78-27.38L192.78-27.38L192.78-27.38Q192.13-27.50 191.44-27.63L191.44-27.63L191.44-27.63Q191.31-27.75 191.13-28.22L191.13-28.22L191.13-28.22Q190.94-28.69 190.78-29.25L190.78-29.25L190.78-29.25Q190.63-29.81 190.50-30.34L190.50-30.34L190.50-30.34Q190.38-30.88 190.38-31.13L190.38-31.13L190.38-31.13Q190.38-31.31 191.78-31.50L191.78-31.50L191.78-31.50Q193.19-31.69 195.25-31.81L195.25-31.81L195.25-31.81Q195.13-35.13 195.09-37.59L195.09-37.59L195.09-37.59Q195.06-40.06 195.25-40.94L195.25-40.94L195.25-40.94Q195.44-42.13 196.28-43.22L196.28-43.22L196.28-43.22Q197.13-44.31 198.09-45.13L198.09-45.13L198.09-45.13Q199.06-45.94 199.91-46.34L199.91-46.34L199.91-46.34Q200.75-46.75 201-46.56L201-46.56L201-46.56Q201.19-46.44 201.31-45.28L201.31-45.28L201.31-45.28Q201.44-44.13 201.50-42.19L201.50-42.19L201.50-42.19Q201.56-40.25 201.56-37.66L201.56-37.66L201.56-37.66Q201.56-35.06 201.56-32.19L201.56-32.19L201.56-32.19Q203.44-32.31 204.75-32.28L204.75-32.28L204.75-32.28Q206.06-32.25 206.13-32.13ZM226.44-30.75L226.44-30.75L226.44-30.75Q226.50-30.06 226.22-28.63L226.22-28.63L226.22-28.63Q225.94-27.19 225.41-25.75L225.41-25.75L225.41-25.75Q224.88-24.31 224.03-23.25L224.03-23.25L224.03-23.25Q223.19-22.19 222.13-22.19L222.13-22.19L222.13-22.19Q221.38-22.19 220.91-23.38L220.91-23.38L220.91-23.38Q220.44-24.56 220.22-26.16L220.22-26.16L220.22-26.16Q220-27.75 219.88-29.31L219.88-29.31L219.88-29.31Q219.75-30.88 219.63-31.50L219.63-31.50L219.63-31.50Q219.44-31.81 218.91-32.09L218.91-32.09L218.91-32.09Q218.38-32.38 217.88-32.38L217.88-32.38L217.88-32.38Q217.38-32.38 216.75-31.56L216.75-31.56L216.75-31.56Q216.13-30.75 215.53-29.69L215.53-29.69L215.53-29.69Q214.94-28.63 214.53-27.56L214.53-27.56L214.53-27.56Q214.13-26.50 214.19-26L214.19-26L214.19-26Q214.19-25.63 215-24.69L215-24.69L215-24.69Q215.81-23.75 217.03-22.47L217.03-22.47L217.03-22.47Q218.25-21.19 219.66-19.72L219.66-19.72L219.66-19.72Q221.06-18.25 222.25-16.78L222.25-16.78L222.25-16.78Q223.44-15.31 224.28-14L224.28-14L224.28-14Q225.13-12.69 225.19-11.75L225.19-11.75L225.19-11.75Q225.25-10.63 224.59-8.88L224.59-8.88L224.59-8.88Q223.94-7.13 222.94-5.50L222.94-5.50L222.94-5.50Q221.94-3.88 220.81-2.69L220.81-2.69L220.81-2.69Q219.69-1.50 218.81-1.44L218.81-1.44L218.81-1.44Q217.94-1.38 216.28-2.41L216.28-2.41L216.28-2.41Q214.63-3.44 212.97-4.84L212.97-4.84L212.97-4.84Q211.31-6.25 210.03-7.63L210.03-7.63L210.03-7.63Q208.75-9 208.56-9.63L208.56-9.63L208.56-9.63Q208.38-10.19 208.34-11.13L208.34-11.13L208.34-11.13Q208.31-12.06 208.41-13L208.41-13L208.41-13Q208.50-13.94 208.75-14.59L208.75-14.59L208.75-14.59Q209-15.25 209.38-15.25L209.38-15.25L209.38-15.25Q209.75-15.25 210.88-13.97L210.88-13.97L210.88-13.97Q212-12.69 213.31-11.09L213.31-11.09L213.31-11.09Q214.63-9.50 215.88-8.22L215.88-8.22L215.88-8.22Q217.13-6.94 217.69-6.94L217.69-6.94L217.69-6.94Q218-6.94 218.38-7.41L218.38-7.41L218.38-7.41Q218.75-7.88 219.06-8.50L219.06-8.50L219.06-8.50Q219.38-9.13 219.59-9.78L219.59-9.78L219.59-9.78Q219.81-10.44 219.81-10.81L219.81-10.81L219.81-10.81Q219.75-11.38 218.81-12.44L218.81-12.44L218.81-12.44Q217.88-13.50 216.44-14.81L216.44-14.81L216.44-14.81Q215-16.13 213.31-17.59L213.31-17.59L213.31-17.59Q211.63-19.06 210.19-20.38L210.19-20.38L210.19-20.38Q208.75-21.69 207.81-22.75L207.81-22.75L207.81-22.75Q206.88-23.81 206.81-24.38L206.81-24.38L206.81-24.38Q206.75-24.94 207.19-26.16L207.19-26.16L207.19-26.16Q207.63-27.38 208.31-28.84L208.31-28.84L208.31-28.84Q209-30.31 209.91-31.88L209.91-31.88L209.91-31.88Q210.81-33.44 211.75-34.75L211.75-34.75L211.75-34.75Q212.69-36.06 213.59-36.91L213.59-36.91L213.59-36.91Q214.50-37.75 215.19-37.75L215.19-37.75L215.19-37.75Q216.56-37.75 218.47-37L218.47-37L218.47-37Q220.38-36.25 222.13-35.16L222.13-35.16L222.13-35.16Q223.88-34.06 225.13-32.88L225.13-32.88L225.13-32.88Q226.38-31.69 226.44-30.75Z" fill="#ccc"></path></g></g><style>text {
  font-size: 64px;
  font-family: Arial Black;
  dominant-baseline: central;
  text-anchor: middle;
}</style></svg>
